<?xml version="1.0" standalone="no"?>
<!DOCTYPE svg PUBLIC "-//W3C//DTD SVG 20010904//EN"
 "http://www.w3.org/TR/2001/REC-SVG-20010904/DTD/svg10.dtd">
<svg version="1.0" xmlns="http://www.w3.org/2000/svg"
 width="81.000000pt" height="81.000000pt" viewBox="0 0 81.000000 81.000000"
 preserveAspectRatio="xMidYMid meet">
<metadata>
Created by potrace 1.14, written by Peter Selinger 2001-2017
</metadata>
<g transform="translate(0.000000,81.000000) scale(0.100000,-0.100000)"
fill="#000000" stroke="none">
<path d="M554 790 c-5 -5 -52 -11 -104 -14 -100 -6 -175 -12 -275 -21 -62 -5
-90 -24 -80 -54 2 -9 7 -117 10 -241 l6 -225 37 -34 c116 -107 208 -181 224
-181 23 0 38 22 38 58 0 31 2 34 24 28 13 -3 31 -9 40 -12 13 -5 16 3 16 51 0
48 3 56 18 54 9 -1 30 -1 45 0 26 1 28 4 25 33 -3 29 0 33 30 39 18 4 36 9 39
13 4 3 6 52 4 109 -3 168 -11 380 -14 383 -1 2 -15 5 -30 8 -14 2 -31 7 -35
10 -5 3 -13 1 -18 -4z"/>
</g>
</svg>
